<svg width="95" height="95" viewBox="0 0 95 95" fill="none" xmlns="http://www.w3.org/2000/svg">
<rect width="95" height="95" rx="47.5" fill="#FCEDF2"/>
<circle cx="47.5" cy="47.5" r="30" fill="#FCEDF2"/>
<path d="M32.7941 42.1712C32.7941 41.6561 32.7941 41.3985 32.8156 41.1815C33.023 39.089 34.6783 37.4336 36.7709 37.2262C36.9879 37.2047 37.2594 37.2047 37.8023 37.2047C38.0116 37.2047 38.1162 37.2047 38.205 37.1994C39.3391 37.1307 40.3323 36.4148 40.7561 35.3606C40.7893 35.2781 40.8203 35.185 40.8824 34.9989C40.9444 34.8127 40.9754 34.7196 41.0086 34.6371C41.4324 33.5829 42.4256 32.867 43.5597 32.7983C43.6486 32.793 43.7467 32.793 43.9429 32.793H51.0572C51.2534 32.793 51.3515 32.793 51.4403 32.7983C52.5744 32.867 53.5676 33.5829 53.9914 34.6371C54.0246 34.7196 54.0556 34.8127 54.1177 34.9989C54.1797 35.185 54.2107 35.2781 54.2439 35.3606C54.6677 36.4148 55.6609 37.1307 56.795 37.1994C56.8838 37.2047 56.9885 37.2047 57.1977 37.2047C57.7407 37.2047 58.0122 37.2047 58.2291 37.2262C60.3217 37.4336 61.9771 39.089 62.1844 41.1815C62.2059 41.3985 62.2059 41.6561 62.2059 42.1712V53.6753C62.2059 56.1461 62.2059 57.3816 61.725 58.3253C61.3021 59.1554 60.6272 59.8303 59.797 60.2533C58.8533 60.7341 57.6179 60.7341 55.1471 60.7341H39.853C37.3821 60.7341 36.1467 60.7341 35.203 60.2533C34.3729 59.8303 33.698 59.1554 33.275 58.3253C32.7941 57.3816 32.7941 56.1461 32.7941 53.6753V42.1712Z" stroke="#DB5D7D" stroke-width="2" stroke-linecap="round" stroke-linejoin="round"/>
<path d="M47.5 54.1165C50.7487 54.1165 53.3824 51.4829 53.3824 48.2341C53.3824 44.9854 50.7487 42.3518 47.5 42.3518C44.2513 42.3518 41.6177 44.9854 41.6177 48.2341C41.6177 51.4829 44.2513 54.1165 47.5 54.1165Z" stroke="#DB5D7D" stroke-width="2" stroke-linecap="round" stroke-linejoin="round"/>
</svg>
